<svg xmlns="http://www.w3.org/2000/svg" viewBox="0 0 120 120" width="20px" height="20px" baseProfile="basic">
  <rect width="84" height="5" x="18" y="102" opacity=".35" />
  <rect width="84" height="84" x="18" y="18" fill="#52afff" />
  <g opacity=".35">
    <rect width="6" height="6" x="29" y="54" />
    <rect width="6" height="6" x="29" y="82" />
    <rect width="6" height="6" x="29" y="68" />
    <rect width="48" height="6" x="41" y="54" />
    <rect width="48" height="6" x="41" y="82" />
    <rect width="48" height="6" x="41" y="68" />
  </g>
  <rect width="6" height="6" x="29" y="50" fill="#a4e2f1" />
  <rect width="6" height="6" x="29" y="78" fill="#a4e2f1" />
  <rect width="6" height="6" x="29" y="64" fill="#a4e2f1" />
  <rect width="48" height="6" x="41" y="50" fill="#a4e2f1" />
  <rect width="48" height="6" x="41" y="78" fill="#a4e2f1" />
  <rect width="48" height="6" x="41" y="64" fill="#a4e2f1" />
  <rect width="84" height="18" x="18" y="18" fill="#0075ff" />
  <rect width="84" height="4" x="18" y="36" opacity=".35" />
  <circle cx="99" cy="92" r="21" opacity=".35" />
  <circle cx="99" cy="88" r="21" fill="#ff1200" />
  <rect width="6" height="28" x="96.104" y="76.677" opacity=".35" transform="rotate(45.001 99.105 90.676)" />
  <rect width="6" height="28" x="96.104" y="73.677" fill="#ffa6a3" transform="rotate(45.001 99.105 87.676)" />
  <rect width="6" height="28" x="96.104" y="76.677" opacity=".35" transform="rotate(134.999 99.104 90.677)" />
  <rect width="6" height="28" x="96.104" y="73.677" fill="#ffa6a3" transform="rotate(134.999 99.104 87.677)" />
</svg>