<svg xmlns="http://www.w3.org/2000/svg" viewBox="0 0 120 120" width="20px" height="20px" baseProfile="basic">
  <circle cx="60" cy="64" r="48" opacity=".35" />
  <circle cx="60" cy="60" r="48" fill="#0075ff" />
  <path d="M40.068,45.561c0.192-0.204,0.381-0.41,0.581-0.61c10.506-10.506,27.6-10.506,38.107,0 c6.733,6.733,9.136,16.17,7.237,24.847l5.37-1.313c1.351-9.615-1.657-19.728-9.035-27.107c-12.476-12.476-32.776-12.476-45.252,0 c-0.199,0.199-0.391,0.404-0.583,0.607l-2.989-2.989l-3.275,13.397l13.397-3.275L40.068,45.561z" opacity=".35" />
  <path d="M78.145,83.638c-10.547,9.914-27.19,9.726-37.496-0.58c-6.292-6.292-8.796-14.943-7.551-23.13 l-5.244,1.282c-0.793,9.098,2.274,18.472,9.223,25.42c12.276,12.276,32.122,12.464,44.641,0.58l3.588,3.588l3.275-13.397 l-11.153,3.695L78.145,83.638z" opacity=".35" />
  <path fill="#fff" d="M40.068,41.561c0.192-0.204,0.381-0.41,0.581-0.61c10.506-10.506,27.6-10.506,38.107,0 c6.733,6.733,9.136,16.17,7.237,24.847l5.37-1.313c1.351-9.615-1.657-19.728-9.035-27.107c-12.476-12.476-32.776-12.476-45.252,0 c-0.199,0.199-0.391,0.404-0.583,0.607l-2.989-2.989l-3.275,13.397l13.397-3.275L40.068,41.561z" />
  <path fill="#fff" d="M78.145,79.638c-10.547,9.914-27.19,9.726-37.496-0.58c-6.292-6.292-8.796-14.943-7.551-23.13 l-5.244,1.282c-0.793,9.098,2.274,18.472,9.223,25.42c12.276,12.276,32.122,12.464,44.641,0.58l3.588,3.588l3.275-13.397 l-13.397,3.275L78.145,79.638z" />
</svg>