<svg xmlns="http://www.w3.org/2000/svg" viewBox="0 0 120 120" width="20px" height="20px" baseProfile="basic">
  <path d="M60,11c-22.644,0-41,18.253-41,40.769S60,117,60,117s41-42.715,41-65.231S82.644,11,60,11z" opacity=".35" />
  <path fill="#ff1200" d="M60,7C37.356,7,19,25.253,19,47.769S60,113,60,113s41-42.715,41-65.231S82.644,7,60,7z" />
  <path d="M39.494,73.506c-11.307-11.307-11.307-29.706,0-41.013l5.657,5.657 c-8.188,8.188-8.188,21.51,0,29.698L39.494,73.506z M80.506,32.494l-5.657,5.657c8.188,8.188,8.188,21.51,0,29.698l5.657,5.657 C91.813,62.199,91.813,43.801,80.506,32.494z M60,38c-8.284,0-15,6.716-15,15s6.716,15,15,15s15-6.716,15-15S68.284,38,60,38z" opacity=".35" />
  <path fill="#a4e2f1" d="M39.494,69.506c-11.307-11.307-11.307-29.706,0-41.013l5.657,5.657 c-8.188,8.188-8.188,21.51,0,29.698L39.494,69.506z M80.506,28.494l-5.657,5.657c8.188,8.188,8.188,21.51,0,29.698l5.657,5.657 C91.813,58.199,91.813,39.801,80.506,28.494z M60,34c-8.284,0-15,6.716-15,15s6.716,15,15,15s15-6.716,15-15S68.284,34,60,34z" />
</svg>