<svg xmlns="http://www.w3.org/2000/svg" viewBox="0 0 64 64" width="64px" height="64px">
  <path d="M 32 8 C 30.896 8 30 8.896 30 10 L 30 13.837891 L 28.248047 12.4375 C 27.387047 11.7475 26.1275 11.887 25.4375 12.75 C 24.7475 13.613 24.888953 14.870547 25.751953 15.560547 L 30 18.960938 L 30 22.347656 C 29.743856 22.447477 29.491702 22.561569 29.25 22.701172 L 25.322266 24.970703 C 25.080491 25.110265 24.855112 25.269522 24.640625 25.441406 L 21.708984 23.75 L 20.888672 18.369141 C 20.721672 17.277141 19.705375 16.526359 18.609375 16.693359 C 17.517375 16.859359 16.767594 17.880656 16.933594 18.972656 L 17.271484 21.1875 L 13.947266 19.267578 C 12.988266 18.712578 11.767844 19.043 11.214844 20 C 10.662844 20.957 10.989266 22.180422 11.947266 22.732422 L 15.273438 24.652344 L 13.183594 25.46875 C 12.153594 25.87075 11.647828 27.029594 12.048828 28.058594 C 12.356828 28.848594 13.112109 29.330078 13.912109 29.330078 C 14.154109 29.330078 14.399672 29.286359 14.638672 29.193359 L 19.708984 27.212891 L 22.640625 28.90625 C 22.598932 29.178159 22.572266 29.452994 22.572266 29.732422 L 22.572266 34.269531 C 22.572266 34.548308 22.599123 34.822452 22.640625 35.09375 L 19.707031 36.787109 L 14.638672 34.808594 C 13.606672 34.404594 12.447875 34.915359 12.046875 35.943359 C 11.645875 36.971359 12.154594 38.131203 13.183594 38.533203 L 15.271484 39.349609 L 11.947266 41.267578 C 10.990266 41.819578 10.662844 43.043 11.214844 44 C 11.585844 44.641 12.258219 45 12.949219 45 C 13.288219 45 13.632266 44.914422 13.947266 44.732422 L 17.271484 42.8125 L 16.933594 45.029297 C 16.767594 46.120297 17.517375 47.139641 18.609375 47.306641 C 18.712375 47.321641 18.813063 47.330078 18.914062 47.330078 C 19.885063 47.330078 20.737672 46.620859 20.888672 45.630859 L 21.708984 40.25 L 24.638672 38.558594 C 24.853784 38.731157 25.079679 38.891219 25.322266 39.03125 L 29.248047 41.298828 C 29.49067 41.438858 29.743097 41.554284 30 41.654297 L 30 45.039062 L 25.751953 48.439453 C 24.887953 49.129453 24.7475 50.387 25.4375 51.25 C 26.1275 52.113 27.387047 52.2535 28.248047 51.5625 L 30 50.162109 L 30 54 C 30 55.104 30.896 56 32 56 C 33.104 56 34 55.104 34 54 L 34 50.162109 L 35.751953 51.5625 C 36.119953 51.8575 36.560047 52 36.998047 52 C 37.584047 52 38.1675 51.743 38.5625 51.25 C 39.2525 50.387 39.111047 49.129453 38.248047 48.439453 L 34 45.039062 L 34 41.652344 C 34.256036 41.552492 34.508313 41.438482 34.75 41.298828 L 38.677734 39.03125 C 38.919509 38.891688 39.144888 38.730478 39.359375 38.558594 L 42.289062 40.25 L 43.109375 45.630859 C 43.261375 46.620859 44.114938 47.328125 45.085938 47.328125 C 45.186938 47.328125 45.287625 47.322641 45.390625 47.306641 C 46.482625 47.140641 47.232406 46.119344 47.066406 45.027344 L 46.728516 42.8125 L 50.052734 44.730469 C 50.367734 44.913469 50.711781 45 51.050781 45 C 51.741781 45 52.413203 44.642 52.783203 44 C 53.335203 43.043 53.009734 41.819578 52.052734 41.267578 L 48.726562 39.347656 L 50.816406 38.53125 C 51.846406 38.12925 52.352172 36.970406 51.951172 35.941406 C 51.549172 34.913406 50.394328 34.403641 49.361328 34.806641 L 44.291016 36.787109 L 41.359375 35.09375 C 41.401041 34.821927 41.427734 34.546915 41.427734 34.267578 L 41.427734 29.732422 C 41.427734 29.453085 41.401041 29.178073 41.359375 28.90625 L 44.292969 27.212891 L 49.361328 29.191406 C 49.601328 29.285406 49.846891 29.330078 50.087891 29.330078 C 50.887891 29.330078 51.642172 28.846641 51.951172 28.056641 C 52.352172 27.028641 51.845406 25.868797 50.816406 25.466797 L 48.728516 24.650391 L 52.052734 22.732422 C 53.009734 22.180422 53.335203 20.957 52.783203 20 C 52.230203 19.043 51.011734 18.712578 50.052734 19.267578 L 46.728516 21.1875 L 47.066406 18.970703 C 47.232406 17.879703 46.482625 16.860359 45.390625 16.693359 C 44.301625 16.526359 43.279328 17.277141 43.111328 18.369141 L 42.291016 23.75 L 39.359375 25.441406 C 39.144888 25.269522 38.919509 25.108312 38.677734 24.96875 L 34.751953 22.701172 C 34.509498 22.561157 34.256866 22.447631 34 22.347656 L 34 18.960938 L 38.248047 15.560547 C 39.112047 14.870547 39.2525 13.613 38.5625 12.75 C 37.8735 11.888 36.612953 11.7465 35.751953 12.4375 L 34 13.837891 L 34 10 C 34 8.896 33.104 8 32 8 z M 32 26.964844 C 32.086 26.964844 32.173 26.985297 32.25 27.029297 L 36.177734 29.298828 C 36.331734 29.387828 36.427734 29.552469 36.427734 29.730469 L 36.427734 34.267578 C 36.427734 34.445578 36.331734 34.610219 36.177734 34.699219 L 32.248047 36.96875 C 32.096047 37.05775 31.904 37.05875 31.75 36.96875 L 27.822266 34.699219 C 27.668266 34.610219 27.572266 34.445578 27.572266 34.267578 L 27.572266 29.730469 C 27.572266 29.552469 27.668266 29.387828 27.822266 29.298828 L 31.751953 27.029297 C 31.827953 26.985297 31.914 26.964844 32 26.964844 z" fill="#31B2EF" />
</svg>