<svg xmlns="http://www.w3.org/2000/svg" viewBox="0 0 50 50" width="64px" height="64px">
  <path d="M5 4C3.346 4 2 5.346 2 7v6h1 44 1v-2c0-1.654-1.346-3-3-3L18.045 8.006c-.279-.101-.856-1.02-1.166-1.514C16.112 5.268 15.317 4 14 4H5zM47 15H3c-.551 0-1 .448-1 1v27c0 1.654 1.346 3 3 3h40c1.654 0 3-1.346 3-3V16C48 15.448 47.551 15 47 15zM34.277 31.957v5.12.001c.001.222-.071.439-.21.618-.188.242-.478.385-.784.387-.036 0-3.884.073-7.405 2.717-.179.134-.39.2-.601.2-.232 0-.465-.081-.651-.241-2.821-2.423-4.405-2.676-7.348-2.676-.336 0-.649-.169-.834-.448-.119-.18-.175-.391-.165-.601l-.001-5.077-.007-.004-.001-.975C16.556 30.163 20.931 28 25.277 28s8.722 2.163 9 2.917V31.957zM40.735 28.626l-4.458 2.299v-.008c0-2.667-6.757-4.917-11-4.917s-10.999 2.25-10.999 4.917v.009l-4.459-2.3c-.333-.172-.542-.515-.542-.889s.209-.717.542-.889l15-7.737c.287-.148.629-.148.916 0l15 7.737c.333.172.542.515.542.889S41.068 28.454 40.735 28.626z" fill="#00288A" />
</svg>