<svg xmlns="http://www.w3.org/2000/svg" viewBox="0 0 32 32" width="20px" height="20px" baseProfile="basic">
  <linearGradient id="qE7edd26hxs2mwj52j5jGa" x1="16" x2="16" y1="4.905" y2="27.01" gradientUnits="userSpaceOnUse">
    <stop offset="0" stop-color="#e0e0e0" />
    <stop offset=".183" stop-color="#bababa" />
    <stop offset=".187" stop-color="#e8f3f5" />
    <stop offset=".187" stop-color="#f0f0f0" />
  </linearGradient>
  <path fill="url(#qE7edd26hxs2mwj52j5jGa)" d="M27,27H5c-1.105,0-2-0.895-2-2V7c0-1.105,0.895-2,2-2h22c1.105,0,2,0.895,2,2v18 C29,26.105,28.105,27,27,27z" />
  <linearGradient id="qE7edd26hxs2mwj52j5jGb" x1="16" x2="16" y1="5" y2="27" gradientUnits="userSpaceOnUse">
    <stop offset="0" stop-opacity=".02" />
    <stop offset="1" stop-opacity=".15" />
  </linearGradient>
  <path fill="url(#qE7edd26hxs2mwj52j5jGb)" d="M27,5.25c0.965,0,1.75,0.785,1.75,1.75v18 c0,0.965-0.785,1.75-1.75,1.75H5c-0.965,0-1.75-0.785-1.75-1.75V7c0-0.965,0.785-1.75,1.75-1.75H27 M27,5H5C3.895,5,3,5.895,3,7v18 c0,1.105,0.895,2,2,2h22c1.105,0,2-0.895,2-2V7C29,5.895,28.105,5,27,5L27,5z" />
  <circle cx="7.5" cy="7.5" r=".5" fill="#fff" />
  <circle cx="9.5" cy="7.5" r=".5" fill="#fff" />
  <circle cx="5.5" cy="7.5" r=".5" fill="#fff" />
  <path fill="#c9c9c9" d="M23.5,13c-0.182,0-10.818,0-11,0c-0.276,0-0.5,0.224-0.5,0.5c0,0.276,0.224,0.5,0.5,0.5 c0.182,0,10.818,0,11,0c0.276,0,0.5-0.224,0.5-0.5C24,13.224,23.776,13,23.5,13z" />
  <path fill="#c9c9c9" d="M23.5,21c-0.182,0-10.818,0-11,0c-0.276,0-0.5,0.224-0.5,0.5c0,0.276,0.224,0.5,0.5,0.5 c0.182,0,10.818,0,11,0c0.276,0,0.5-0.224,0.5-0.5C24,21.224,23.776,21,23.5,21z" />
  <path fill="#c9c9c9" d="M23.5,17c-0.182,0-10.818,0-11,0c-0.276,0-0.5,0.224-0.5,0.5c0,0.276,0.224,0.5,0.5,0.5 c0.182,0,10.818,0,11,0c0.276,0,0.5-0.224,0.5-0.5C24,17.224,23.776,17,23.5,17z" />
  <circle cx="8.5" cy="13.5" r="1" fill="#c9c9c9" />
  <circle cx="8.5" cy="17.5" r="1" fill="#c9c9c9" />
  <circle cx="8.5" cy="21.5" r="1" fill="#c9c9c9" />
  <path d="M25,17.5c-4.136,0-7.5,3.364-7.5,7.5c0,0.693,0.102,1.362,0.279,2H27c1.105,0,2-0.895,2-2v-6.333 C27.841,17.932,26.471,17.5,25,17.5z" opacity=".04" />
  <path d="M25,17.75c-3.998,0-7.25,3.252-7.25,7.25c0,0.694,0.104,1.364,0.287,2H27c1.105,0,2-0.895,2-2v-6.041 C27.853,18.197,26.478,17.75,25,17.75z" opacity=".04" />
  <linearGradient id="qE7edd26hxs2mwj52j5jGc" x1="25" x2="25" y1="17.936" y2="32.163" gradientUnits="userSpaceOnUse">
    <stop offset="0" stop-color="#ff624a" />
    <stop offset=".247" stop-color="#ff5940" />
    <stop offset=".672" stop-color="#fd4224" />
    <stop offset="1" stop-color="#fc2c0a" />
  </linearGradient>
  <circle cx="25" cy="25" r="7" fill="url(#qE7edd26hxs2mwj52j5jGc)" />
  <linearGradient id="qE7edd26hxs2mwj52j5jGd" x1="25" x2="25" y1="17.827" y2="32.104" gradientUnits="userSpaceOnUse">
    <stop offset="0" stop-opacity=".02" />
    <stop offset="1" stop-opacity=".15" />
  </linearGradient>
  <path fill="url(#qE7edd26hxs2mwj52j5jGd)" d="M25,18c-3.866,0-7,3.134-7,7 c0,3.866,3.134,7,7,7c3.866,0,7-3.134,7-7C32,21.134,28.866,18,25,18z M25,31.75c-3.722,0-6.75-3.028-6.75-6.75 c0-3.722,3.028-6.75,6.75-6.75s6.75,3.028,6.75,6.75C31.75,28.722,28.722,31.75,25,31.75z" />
  <path fill="#fff" d="M21.751,22.412l0.661-0.661c0.125-0.125,0.329-0.125,0.454,0l5.383,5.383 c0.125,0.125,0.125,0.329,0,0.454l-0.661,0.661c-0.125,0.125-0.329,0.125-0.454,0l-5.383-5.383 C21.625,22.741,21.625,22.538,21.751,22.412z" />
  <path fill="#fff" d="M27.588,21.751l0.661,0.661c0.125,0.125,0.125,0.329,0,0.454l-5.383,5.383 c-0.125,0.125-0.329,0.125-0.454,0l-0.661-0.661c-0.125-0.125-0.125-0.329,0-0.454l5.383-5.383 C27.259,21.625,27.462,21.625,27.588,21.751z" />
</svg>