<svg xmlns="http://www.w3.org/2000/svg" viewBox="0 0 50 50" width="64px" height="64px">
  <path d="M45 8L18.044 8.006c-.279-.101-.855-1.02-1.165-1.514C16.112 5.268 15.317 4 14 4H5C3.346 4 2 5.346 2 7v6h1 44 1v-2C48 9.346 46.654 8 45 8zM29.71 21.71c.39-.39.39-1.03 0-1.42-.39-.39-1.03-.39-1.42 0l-8 8c-.39.39-.39 1.03 0 1.42l8 8C28.49 37.9 28.74 38 29 38s.51-.1.71-.29c.39-.39.39-1.03 0-1.42L23.41 30H48v13c0 1.66-1.34 3-3 3H5c-1.66 0-3-1.34-3-3V16c0-.55.45-1 1-1h44c.55 0 1 .45 1 1v12H23.41L29.71 21.71z" fill="#00288A" />
</svg>