<svg xmlns="http://www.w3.org/2000/svg" viewBox="0 0 120 120" width="20px" height="20px" baseProfile="basic">
  <polygon points="109,100 36,100 36,88 97,88 97,57 109,57" opacity=".35" />
  <polygon points="40,75 10,94 40,113" opacity=".35" />
  <polygon fill="#0037ff" points="109,97 36,97 36,85 97,85 97,54 109,54" />
  <polygon fill="#52afff" points="40,72 10,91 40,110" />
  <polygon points="22,73 10,73 10,30 83,30 83,42 22,42" opacity=".35" />
  <polygon points="79,55 109,36 79,17" opacity=".35" />
  <polygon fill="#0037ff" points="22,69 10,69 10,26 83,26 83,38 22,38" />
  <polygon fill="#52afff" points="79,51 109,32 79,13" />
</svg>