<svg xmlns="http://www.w3.org/2000/svg" viewBox="0 0 120 120" width="20px" height="20px" baseProfile="basic">
  <polygon points="70,54 70,17 13,17 13,74 50,74 50,111 107,111 107,54" opacity=".35" />
  <rect width="57" height="57" x="50" y="50" fill="#0075ff" />
  <polygon fill="#52afff" points="50,70 13,70 13,13 70,13 70,50" />
  <g>
    <polygon points="55.526,59.496 52.698,41.111 47.748,46.061 29.363,27.676 23.707,33.333 42.091,51.717 37.142,56.667" opacity=".35" />
    <polygon points="96.526,94.839 78.142,76.454 83.091,71.504 64.707,68.676 67.535,87.061 72.485,82.111 90.87,100.496" opacity=".35" />
    <polygon fill="#a4e2f1" points="55.526,55.496 52.698,37.111 47.748,42.061 29.363,23.676 23.707,29.333 42.091,47.717 37.142,52.667" />
    <polygon fill="#a4e2f1" points="96.526,90.839 78.142,72.454 83.091,67.504 64.707,64.676 67.535,83.061 72.485,78.111 90.87,96.496" />
  </g>
</svg>