<svg xmlns="http://www.w3.org/2000/svg" viewBox="0 0 120 120" width="20px" height="20px" baseProfile="basic">
  <rect width="84" height="5" x="18" y="102" opacity=".35" />
  <rect width="84" height="84" x="18" y="18" fill="#52afff" />
  <g opacity=".35">
    <rect width="6" height="6" x="29" y="54" />
    <rect width="6" height="6" x="29" y="82" />
    <rect width="6" height="6" x="29" y="68" />
    <rect width="48" height="6" x="41" y="54" />
    <rect width="48" height="6" x="41" y="82" />
    <rect width="48" height="6" x="41" y="68" />
  </g>
  <rect width="6" height="6" x="29" y="50" fill="#a4e2f1" />
  <rect width="6" height="6" x="29" y="78" fill="#a4e2f1" />
  <rect width="6" height="6" x="29" y="64" fill="#a4e2f1" />
  <rect width="48" height="6" x="41" y="50" fill="#a4e2f1" />
  <rect width="48" height="6" x="41" y="78" fill="#a4e2f1" />
  <rect width="48" height="6" x="41" y="64" fill="#a4e2f1" />
  <rect width="84" height="18" x="18" y="18" fill="#0075ff" />
  <rect width="84" height="4" x="18" y="36" opacity=".35" />
  <g>
    <polygon points="119.915,72.542 107.455,60.083 65.076,102.462 62.496,117.502 77.536,114.922" opacity=".35" />
    <polygon fill="#ffa400" points="76.036,110.422 60.996,113.002 63.576,97.962 97.145,64.392 105.49,68.508 109.605,76.852" />
    <rect width="12.46" height="17.62" x="101.549" y="57.407" fill="#ff1200" transform="rotate(-45.001 107.782 66.22)" />
    <polygon fill="#ffec76" points="63.576,97.962 76.036,110.422 60.996,113.002" />
    <polygon fill="#0037ff" points="60.996,113.002 62.208,105.938 68.066,111.797" />
    <rect width="10.466" height="17.62" x="96.555" y="63.398" fill="#a4e2f1" transform="rotate(-45.001 101.79 72.21)" />
  </g>
</svg>