<svg xmlns="http://www.w3.org/2000/svg" viewBox="0 0 120 120" width="20px" height="20px" baseProfile="basic">
  <polygon points="24,110 24,18 70,18 96,42 96,110" opacity=".35" />
  <polygon fill="#0075ff" points="24,106 24,14 70,14 96,38 96,106" />
  <polygon points="70,18 70,45 96,38" opacity=".35" />
  <polygon fill="#a4e2f1" points="70,14 70,38 96,38" />
  <path d="M39.766,59.796l-4.162,1.632v-4.872l8.745-3.317h0.315v19.883h-4.898V59.796z M56.971,53 c4.608,0,8.348,3.978,8.348,10.297c0,6.294-3.74,10.297-8.348,10.297c-4.636,0-8.322-4.004-8.322-10.297 C48.649,56.978,52.335,53,56.971,53z M53.6,63.297c0,3.609,1.475,5.715,3.371,5.715s3.502-2.106,3.502-5.715 c0-3.635-1.606-5.715-3.502-5.715S53.6,59.663,53.6,63.297z M76.048,53c4.608,0,8.348,3.978,8.348,10.297 c0,6.294-3.74,10.297-8.348,10.297c-4.636,0-8.322-4.004-8.322-10.297C67.725,56.978,71.411,53,76.048,53z M72.677,63.297 c0,3.609,1.475,5.715,3.371,5.715s3.502-2.106,3.502-5.715c0-3.635-1.606-5.715-3.502-5.715S72.677,59.663,72.677,63.297z M44.27,78.405c4.608,0,8.348,3.978,8.348,10.297c0,6.294-3.74,10.297-8.348,10.297c-4.636,0-8.322-4.004-8.322-10.297 C35.947,82.383,39.634,78.405,44.27,78.405z M40.899,88.703c0,3.609,1.475,5.715,3.371,5.715s3.502-2.106,3.502-5.715 c0-3.635-1.606-5.715-3.502-5.715S40.899,85.068,40.899,88.703z M63.348,78.405c4.608,0,8.348,3.978,8.348,10.297 c0,6.294-3.74,10.297-8.348,10.297c-4.636,0-8.322-4.004-8.322-10.297C55.026,82.383,58.712,78.405,63.348,78.405z M59.977,88.703 c0,3.609,1.475,5.715,3.371,5.715c1.896,0,3.502-2.106,3.502-5.715c0-3.635-1.606-5.715-3.502-5.715 C61.453,82.988,59.977,85.068,59.977,88.703z M77.922,85.201l-4.162,1.632v-4.872l8.745-3.317h0.315v19.883h-4.898V85.201z" opacity=".35" />
  <path fill="#fff" d="M39.766,55.796l-4.162,1.632v-4.872l8.745-3.317h0.315v19.883h-4.898V55.796z M56.971,49 c4.608,0,8.348,3.978,8.348,10.297c0,6.294-3.74,10.297-8.348,10.297c-4.636,0-8.322-4.004-8.322-10.297 C48.649,52.978,52.335,49,56.971,49z M53.6,59.297c0,3.609,1.475,5.715,3.371,5.715s3.502-2.106,3.502-5.715 c0-3.635-1.606-5.715-3.502-5.715S53.6,55.663,53.6,59.297z M76.048,49c4.608,0,8.348,3.978,8.348,10.297 c0,6.294-3.74,10.297-8.348,10.297c-4.636,0-8.322-4.004-8.322-10.297C67.725,52.978,71.411,49,76.048,49z M72.677,59.297 c0,3.609,1.475,5.715,3.371,5.715s3.502-2.106,3.502-5.715c0-3.635-1.606-5.715-3.502-5.715S72.677,55.663,72.677,59.297z M44.27,74.405c4.608,0,8.348,3.978,8.348,10.297c0,6.294-3.74,10.297-8.348,10.297c-4.636,0-8.322-4.004-8.322-10.297 C35.947,78.383,39.634,74.405,44.27,74.405z M40.899,84.703c0,3.609,1.475,5.715,3.371,5.715s3.502-2.106,3.502-5.715 c0-3.635-1.606-5.715-3.502-5.715S40.899,81.068,40.899,84.703z M63.348,74.405c4.608,0,8.348,3.978,8.348,10.297 c0,6.294-3.74,10.297-8.348,10.297c-4.636,0-8.322-4.004-8.322-10.297C55.026,78.383,58.712,74.405,63.348,74.405z M59.977,84.703 c0,3.609,1.475,5.715,3.371,5.715c1.896,0,3.502-2.106,3.502-5.715c0-3.635-1.606-5.715-3.502-5.715 C61.453,78.988,59.977,81.068,59.977,84.703z M77.922,81.201l-4.162,1.632v-4.872l8.745-3.317h0.315v19.883h-4.898V81.201z" />
</svg>