<svg xmlns="http://www.w3.org/2000/svg" viewBox="0 0 120 120" width="20px" height="20px" baseProfile="basic">
  <path d="M65.5,28h-11V10h11V28z M65.5,99h-11v18h11V99z M109.082,41.513l-5.5-9.526l-15.588,9l5.5,9.526 L109.082,41.513z M32.006,86.013l-5.5-9.526l-15.588,9l5.5,9.526L32.006,86.013z M26.506,50.513l5.5-9.526l-15.588-9l-5.5,9.526 L26.506,50.513z M103.582,95.013l5.5-9.526l-15.588-9l-5.5,9.526L103.582,95.013z M91.513,19.918l-9.526-5.5l-9,15.588l9.526,5.5 L91.513,19.918z M48.767,93.533l-9.526-5.5l-10.754,19.049l9.526,5.5L48.767,93.533z M37.487,35.506l9.526-5.5l-9-15.588 l-9.526,5.5L37.487,35.506z M81.987,112.582l9.526-5.5L81.312,89.414l-9.526,5.5L81.987,112.582z M113.5,69V58h-18v11H113.5z M24.5,69V58h-18v11H24.5z" opacity=".35" />
  <path fill="#ffa400" d="M65.5,24h-11V6h11V24z M65.5,95h-11v18h11V95z M109.082,37.513l-5.5-9.526l-15.588,9l5.5,9.526 L109.082,37.513z M32.006,82.013l-5.5-9.526l-15.588,9l5.5,9.526L32.006,82.013z M26.506,46.513l5.5-9.526l-15.588-9l-5.5,9.526 L26.506,46.513z M103.582,91.013l5.5-9.526l-15.588-9l-5.5,9.526L103.582,91.013z M91.513,15.918l-9.526-5.5l-9,15.588l9.526,5.5 L91.513,15.918z M47.013,92.994l-9.526-5.5l-9,15.588l9.526,5.5L47.013,92.994z M37.487,31.506l9.526-5.5l-9-15.588l-9.526,5.5 L37.487,31.506z M81.987,108.582l9.526-5.5l-9-15.588l-9.526,5.5L81.987,108.582z M113.5,65V54h-18v11H113.5z M24.5,65V54h-18v11 H24.5z" />
  <ellipse cx="60" cy="63.517" opacity=".35" rx="38" ry="38.5" />
  <ellipse cx="60" cy="59.517" fill="#ffc400" rx="38" ry="38.5" />
</svg>