<svg xmlns="http://www.w3.org/2000/svg" viewBox="0 0 48 48" width="64px" height="64px" baseProfile="basic">
  <path fill="#8fcae6" d="M29.414,4H13c-2.757,0-5,2.243-5,5v30c0,2.757,2.243,5,5,5h22c2.757,0,5-2.243,5-5V14.586L29.414,4z" />
  <path fill="#324561" d="M40,16h-7c-2.757,0-5-2.243-5-5V4c0-0.552,0.447-1,1-1s1,0.448,1,1v7c0,1.654,1.346,3,3,3h7 c0.553,0,1,0.448,1,1S40.553,16,40,16z" />
  <path fill="#324561" d="M14.676,33.813v-6.697h-1.893c-0.52,0-0.869-0.298-0.869-0.793s0.343-0.793,0.869-0.793h5.707 c0.521,0,0.863,0.298,0.863,0.793s-0.35,0.793-0.863,0.793h-1.898v6.697c0,0.629-0.355,0.996-0.958,0.996 S14.676,34.442,14.676,33.813z" />
  <path fill="#324561" d="M20.179,33.979c0-0.235,0.076-0.438,0.261-0.692l2.285-3.186V30.05l-2.209-3.01 c-0.21-0.279-0.279-0.488-0.279-0.736c0-0.52,0.412-0.9,0.971-0.9c0.361,0,0.615,0.158,0.863,0.533l1.961,2.895h0.051l2.025-2.959 c0.223-0.33,0.412-0.469,0.781-0.469c0.501,0,0.933,0.361,0.933,0.818c0,0.248-0.069,0.451-0.254,0.686l-2.38,3.18v0.045 l2.311,3.117c0.178,0.229,0.254,0.443,0.254,0.697c0,0.502-0.388,0.863-0.921,0.863c-0.349,0-0.584-0.139-0.831-0.476l-2.045-2.851 h-0.051l-2.012,2.857c-0.241,0.349-0.444,0.469-0.807,0.469C20.578,34.81,20.179,34.442,20.179,33.979z" />
  <path fill="#324561" d="M31.408,33.813v-6.697h-1.893c-0.52,0-0.869-0.298-0.869-0.793s0.343-0.793,0.869-0.793h5.707 c0.521,0,0.863,0.298,0.863,0.793s-0.35,0.793-0.863,0.793h-1.898v6.697c0,0.629-0.355,0.996-0.958,0.996 S31.408,34.442,31.408,33.813z" />
</svg>