<svg xmlns="http://www.w3.org/2000/svg" viewBox="0 0 32 32" width="64px" height="64px">
  <path d="M 6 3 L 6 10 L 8 10 L 8 5 L 24 5 L 24 10 L 26 10 L 26 3 Z M 7 12 L 7 17.5 C 7 17.785156 6.785156 18 6.5 18 C 6.214844 18 6 17.785156 6 17.5 L 6 17 L 4 17 L 4 17.5 C 4 18.867188 5.132813 20 6.5 20 C 7.867188 20 9 18.867188 9 17.5 L 9 12 Z M 12.5 12 C 11.132813 12 10 13.132813 10 14.5 C 10 15.867188 11.132813 17 12.5 17 C 12.785156 17 13 17.214844 13 17.5 C 13 17.863281 12.9375 18 12.5 18 C 12.121094 18 12.066406 17.914063 12.0625 17.90625 C 12.058594 17.898438 12 17.867188 12 17.625 L 10 17.625 C 10 18.191406 10.15625 18.832031 10.625 19.3125 C 11.09375 19.792969 11.773438 20 12.5 20 C 13.910156 20 15 18.792969 15 17.5 C 15 16.132813 13.867188 15 12.5 15 C 12.214844 15 12 14.785156 12 14.5 C 12 14.214844 12.214844 14 12.5 14 C 12.769531 14 12.84375 14.058594 12.90625 14.125 C 12.96875 14.191406 13 14.320313 13 14.40625 L 15 14.40625 C 15 13.839844 14.804688 13.253906 14.375 12.78125 C 13.945313 12.308594 13.257813 12 12.5 12 Z M 18.5 12 C 17.132813 12 16 13.132813 16 14.5 L 16 17.5 C 16 18.867188 17.132813 20 18.5 20 C 19.867188 20 21 18.867188 21 17.5 L 21 14.5 C 21 13.132813 19.867188 12 18.5 12 Z M 22 12 L 22 20 L 24 20 L 24 17 L 25 18.34375 L 25 20 L 27 20 L 27 12 L 25 12 L 25 15 L 24 13.65625 L 24 12 Z M 18.5 14 C 18.785156 14 19 14.214844 19 14.5 L 19 17.5 C 19 17.785156 18.785156 18 18.5 18 C 18.214844 18 18 17.785156 18 17.5 L 18 14.5 C 18 14.214844 18.214844 14 18.5 14 Z M 6 22 L 6 29 L 26 29 L 26 22 L 24 22 L 24 27 L 8 27 L 8 22 Z" fill="#0C817B" />
</svg>