<svg xmlns="http://www.w3.org/2000/svg" viewBox="0 0 50 50" width="64px" height="64px">
  <path d="M 5 4 C 3.355 4 2 5.355 2 7 L 2 16 L 2 26 L 2 43 C 2 44.645 3.355 46 5 46 L 45 46 C 46.645 46 48 44.645 48 43 L 48 11 C 48 9.355 46.645 8 45 8 L 18 8 C 18.087 8 17.968609 7.99975 17.724609 7.71875 C 17.480609 7.43675 17.179234 6.96975 16.865234 6.46875 C 16.551234 5.96775 16.222641 5.4328906 15.806641 4.9628906 C 15.390641 4.4928906 14.819 4 14 4 L 5 4 z M 5 6 L 14 6 C 13.939 6 14.060594 6.0071094 14.308594 6.2871094 C 14.555594 6.5671094 14.857922 7.03225 15.169922 7.53125 C 15.481922 8.03025 15.806891 8.56325 16.212891 9.03125 C 16.618891 9.49925 17.179 10 18 10 L 45 10 C 45.565 10 46 10.435 46 11 L 46 13.1875 C 45.685 13.0735 45.352 13 45 13 L 5 13 C 4.648 13 4.315 13.0735 4 13.1875 L 4 7 C 4 6.435 4.435 6 5 6 z M 5 15 L 45 15 C 45.565 15 46 15.435 46 16 L 46 43 C 46 43.565 45.565 44 45 44 L 5 44 C 4.435 44 4 43.565 4 43 L 4 16 C 4 15.435 4.435 15 5 15 z M 25.253906 19 A 1.0001 1.0001 0 0 0 24.818359 19.111328 L 9.8183594 26.847656 A 1.0001 1.0001 0 0 0 9.8183594 28.625 L 16.277344 31.957031 L 16.277344 37.068359 L 16.277344 37.076172 C 16.277308 37.076429 16.275391 37.082031 16.275391 37.082031 C 16.275391 37.082038 16.276944 37.099222 16.277344 37.101562 A 1.0001 1.0001 0 0 0 16.318359 37.359375 C 16.318881 37.362775 16.322266 37.382803 16.322266 37.382812 C 16.322266 37.382815 16.329578 37.395584 16.330078 37.396484 A 1.0001 1.0001 0 0 0 16.542969 37.755859 C 16.544369 37.758159 16.556641 37.777344 16.556641 37.777344 C 16.556643 37.777346 16.572689 37.788093 16.574219 37.789062 A 1.0001 1.0001 0 0 0 16.935547 38.017578 C 16.937347 38.018678 16.955078 38.029297 16.955078 38.029297 C 16.955088 38.0293 16.984657 38.033856 16.992188 38.035156 A 1.0001 1.0001 0 0 0 17.234375 38.074219 C 17.244375 38.075819 17.277324 38.082031 17.277344 38.082031 C 20.200844 38.082031 21.648756 38.201135 24.625 40.757812 A 1.0001 1.0001 0 0 0 25.876953 40.798828 C 29.454385 38.112271 33.283203 38.082031 33.283203 38.082031 A 1.0001 1.0001 0 0 0 34.275391 37.148438 A 1.0001 1.0001 0 0 0 34.277344 37.076172 L 34.277344 31.957031 L 40.736328 28.625 A 1.0001 1.0001 0 0 0 40.736328 26.847656 L 25.736328 19.111328 A 1.0001 1.0001 0 0 0 25.253906 19 z M 25.277344 21.125 L 38.095703 27.736328 L 34.25 29.720703 C 34.182049 29.035581 33.794114 28.448701 33.300781 28.023438 C 32.759479 27.556822 32.076159 27.206038 31.275391 26.914062 C 29.67382 26.330063 27.58488 26 25.277344 26 C 22.969807 26 20.878881 26.330115 19.277344 26.914062 C 18.476575 27.206038 17.793255 27.556822 17.251953 28.023438 C 16.75862 28.448701 16.372351 29.035581 16.304688 29.720703 L 12.458984 27.736328 L 25.277344 21.125 z M 25.277344 28 C 27.387807 28 29.297834 28.321167 30.591797 28.792969 C 31.238778 29.028869 31.727708 29.307709 31.996094 29.539062 C 32.264479 29.770418 32.277344 29.885796 32.277344 29.917969 L 32.277344 36.226562 C 31.161527 36.308422 28.5152 36.690105 25.339844 38.814453 C 22.775688 36.784265 20.6512 36.304553 18.277344 36.208984 L 18.277344 29.917969 C 18.277344 29.885799 18.290204 29.770417 18.558594 29.539062 C 18.826979 29.307709 19.315909 29.028869 19.962891 28.792969 C 21.256853 28.321167 23.16688 28 25.277344 28 z M 16.314453 36.8125 C 16.312653 36.82525 16.298159 36.920156 16.287109 36.998047 C 16.296609 36.923977 16.310597 36.825965 16.310547 36.826172 C 16.310537 36.826211 16.313653 36.81499 16.314453 36.8125 z" fill="#00288A" />
</svg>