<svg xmlns="http://www.w3.org/2000/svg" viewBox="0 0 120 120" width="20px" height="20px" baseProfile="basic">
  <polygon points="24,108 24,16 70,16 96,40 96,108" opacity=".35" />
  <polygon fill="#0075ff" points="24,104 24,12 70,12 96,36 96,104" />
  <polygon points="70,16 70,43 96,36" opacity=".35" />
  <polygon fill="#a4e2f1" points="70,12 70,36 96,36" />
  <path d="M60.153,66.61L54.31,89h-9.442l-7.892-30h9.499l3.811,19.588h0.162L55.438,59H65.1l4.776,19.588h0.214L74.168,59h8.799 l-7.888,30h-9.284L60.153,66.61z" opacity=".35" />
  <path fill="#a4e2f1" d="M60.214,67.022h-0.157L55.333,85H43.849l-7.892-30h10.519l3.811,19.588h0.162L55.438,55H65.1 l4.776,19.588h0.214L74.168,55h9.876l-7.888,30H64.776L60.214,67.022z" />
</svg>