<svg xmlns="http://www.w3.org/2000/svg" viewBox="0 0 48 48" width="32px" height="32px" baseProfile="basic">
  <path fill="#50e6ff" d="M39,16v25c0,1.105-0.895,2-2,2H11c-1.105,0-2-0.895-2-2V7c0-1.105,0.895-2,2-2h17L39,16z" />
  <linearGradient id="bxHDvo8YZRHwBmK9dstDFa" x1="28.529" x2="33.6" y1="-582.528" y2="-587.6" gradientTransform="translate(0 598)" gradientUnits="userSpaceOnUse">
    <stop offset="0" stop-color="#3079d6" />
    <stop offset="1" stop-color="#297cd2" />
  </linearGradient>
  <path fill="url(#bxHDvo8YZRHwBmK9dstDFa)" d="M28,5v9c0,1.105,0.895,2,2,2h9L28,5z" />
  <path fill="#057093" d="M35.5,21h-23c-0.276,0-0.5-0.224-0.5-0.5v-1c0-0.276,0.224-0.5,0.5-0.5h23c0.276,0,0.5,0.224,0.5,0.5 v1C36,20.776,35.776,21,35.5,21z" />
  <path fill="#057093" d="M14.5,27h-2c-0.276,0-0.5-0.224-0.5-0.5v-1c0-0.276,0.224-0.5,0.5-0.5h2c0.276,0,0.5,0.224,0.5,0.5v1 C15,26.776,14.776,27,14.5,27z" />
  <path fill="#057093" d="M35.5,27h-18c-0.276,0-0.5-0.224-0.5-0.5v-1c0-0.276,0.224-0.5,0.5-0.5h18c0.276,0,0.5,0.224,0.5,0.5 v1C36,26.776,35.776,27,35.5,27z" />
  <path fill="#057093" d="M35.5,35h-18c-0.276,0-0.5-0.224-0.5-0.5v-1c0-0.276,0.224-0.5,0.5-0.5h18c0.276,0,0.5,0.224,0.5,0.5 v1C36,34.776,35.776,35,35.5,35z" />
  <path fill="#057093" d="M35.5,31h-18c-0.276,0-0.5-0.224-0.5-0.5v-1c0-0.276,0.224-0.5,0.5-0.5h18c0.276,0,0.5,0.224,0.5,0.5 v1C36,30.776,35.776,31,35.5,31z" />
  <radialGradient id="bxHDvo8YZRHwBmK9dstDFb" cx="37.649" cy="-639.947" r="11.868" gradientTransform="matrix(1 0 0 -1 0 -602)" gradientUnits="userSpaceOnUse">
    <stop offset="0" />
    <stop offset="1" stop-opacity="0" />
  </radialGradient>
  <path fill="url(#bxHDvo8YZRHwBmK9dstDFb)" d="M38,26c-6.617,0-12,5.383-12,12c0,1.786,0.403,3.476,1.105,5H37c1.105,0,2-0.895,2-2V26.051 C38.669,26.023,38.338,26,38,26z" />
  <path fill="#057093" d="M14.5,31h-2c-0.276,0-0.5-0.224-0.5-0.5v-1c0-0.276,0.224-0.5,0.5-0.5h2c0.276,0,0.5,0.224,0.5,0.5v1 C15,30.776,14.776,31,14.5,31z" />
  <path fill="#057093" d="M14.5,35h-2c-0.276,0-0.5-0.224-0.5-0.5v-1c0-0.276,0.224-0.5,0.5-0.5h2c0.276,0,0.5,0.224,0.5,0.5v1 C15,34.776,14.776,35,14.5,35z" />
  <linearGradient id="bxHDvo8YZRHwBmK9dstDFc" x1="34.243" x2="41.757" y1="-602.935" y2="-617.065" gradientTransform="matrix(1 0 0 -1 0 -572)" gradientUnits="userSpaceOnUse">
    <stop offset="0" stop-color="#fcfcfc" />
    <stop offset=".495" stop-color="#f4f4f4" />
    <stop offset=".869" stop-color="#e8e8e8" />
    <stop offset="1" stop-color="#e8e8e8" />
  </linearGradient>
  <circle cx="38" cy="38" r="8" fill="url(#bxHDvo8YZRHwBmK9dstDFc)" />
  <linearGradient id="bxHDvo8YZRHwBmK9dstDFd" x1="28" x2="48" y1="-610" y2="-610" gradientTransform="matrix(1 0 0 -1 0 -572)" gradientUnits="userSpaceOnUse">
    <stop offset="0" stop-color="#f44f5a" />
    <stop offset=".443" stop-color="#ee3d4a" />
    <stop offset="1" stop-color="#e52030" />
  </linearGradient>
  <path fill="url(#bxHDvo8YZRHwBmK9dstDFd)" d="M38,28c-5.514,0-10,4.486-10,10s4.486,10,10,10s10-4.486,10-10S43.514,28,38,28z M38,31 c1.388,0,2.679,0.411,3.768,1.11l-9.658,9.658C31.411,40.679,31,39.388,31,38C31,34.141,34.14,31,38,31z M38,45 c-1.388,0-2.679-0.411-3.768-1.11l9.658-9.658C44.589,35.321,45,36.612,45,38C45,41.859,41.86,45,38,45z" />
</svg>