<svg xmlns="http://www.w3.org/2000/svg" viewBox="0 0 48 48" width="64px" height="64px">
  <path d="M 29.476562 3.9785156 A 1.50015 1.50015 0 0 0 28.900391 4.1035156 A 1.50015 1.50015 0 0 0 28.871094 4.1171875 A 1.50015 1.50015 0 0 0 28 5.6914062 L 28 12.5 C 28 14.414955 29.585045 16 31.5 16 L 37 16 L 37 21 L 23.765625 21 L 21.404297 21 A 1.50015 1.50015 0 1 0 21.404297 24 L 23.765625 24 L 39 24 L 39 34 L 34 34 L 32.882812 34 A 1.50015 1.50015 0 1 0 32.882812 37 L 34 37 L 37 37 L 37 39.5 C 37 40.346499 36.346499 41 35.5 41 L 21.042969 41 A 1.50015 1.50015 0 1 0 21.042969 44 L 35.5 44 C 37.967501 44 40 41.967501 40 39.5 L 40 36.791016 C 41.099156 36.530047 42 35.670167 42 34.5 L 42 23.5 C 42 22.329833 41.099156 21.469953 40 21.208984 L 40 14.746094 A 1.50015 1.50015 0 0 0 39.564453 13.423828 A 1.50015 1.50015 0 0 0 39.560547 13.417969 A 1.50015 1.50015 0 0 0 39.550781 13.408203 A 1.50015 1.50015 0 0 0 39.537109 13.396484 A 1.50015 1.50015 0 0 0 39.40625 13.285156 L 30.689453 4.5683594 A 1.50015 1.50015 0 0 0 29.476562 3.9785156 z M 12.5 4 C 10.032499 4 8 6.0324991 8 8.5 L 8 21.208984 C 6.9008442 21.469953 6 22.329833 6 23.5 L 6 34.5 C 6 35.670167 6.9008442 36.530047 8 36.791016 L 8 39.5 C 8 41.967501 10.032499 44 12.5 44 L 16 44 A 1.50015 1.50015 0 1 0 16 41 L 12.5 41 C 11.653501 41 11 40.346499 11 39.5 L 11 37 L 26.660156 37 A 1.50015 1.50015 0 1 0 26.660156 34 L 9 34 L 9 24 L 15.617188 24 A 1.50015 1.50015 0 1 0 15.617188 21 L 11 21 L 11 8.5 C 11 7.6535009 11.653501 7 12.5 7 L 21.042969 7 A 1.50015 1.50015 0 1 0 21.042969 4 L 12.5 4 z M 31 9.1210938 L 34.878906 13 L 31.5 13 C 31.204955 13 31 12.795045 31 12.5 L 31 9.1210938 z M 14 25 C 13.448 25 13 25.448 13 26 L 13 30.5 C 13 30.762 12.739125 31 12.453125 31 C 12.233125 31 12.009359 30.852063 11.943359 30.664062 C 11.758359 30.143062 11.186016 29.871641 10.666016 30.056641 C 10.145016 30.241641 9.8735937 30.813984 10.058594 31.333984 C 10.406594 32.314984 11.390125 33 12.453125 33 C 13.857125 33 15 31.879 15 30.5 L 15 26 C 15 25.448 14.552 25 14 25 z M 18.625 25 C 17.247 25 16.125 26.122 16.125 27.5 C 16.125 28.878 17.247 30 18.625 30 L 19.5 30 C 19.776 30 20 30.224 20 30.5 C 20 30.776 19.776 31 19.5 31 L 18.408203 31 C 18.066203 31 17.785031 30.745969 17.707031 30.667969 C 17.316031 30.276969 16.683969 30.276969 16.292969 30.667969 C 15.901969 31.058969 15.901969 31.691031 16.292969 32.082031 C 16.568969 32.358031 17.327203 33 18.408203 33 L 19.5 33 C 20.878 33 22 31.879 22 30.5 C 22 29.122 20.878 28 19.5 28 L 18.625 28 C 18.349 28 18.125 27.776 18.125 27.5 C 18.125 27.224 18.349 27 18.625 27 L 19.5 27 C 19.804 27 20.041969 27.208031 20.042969 27.207031 C 20.433969 27.597031 21.066031 27.598031 21.457031 27.207031 C 21.848031 26.816031 21.848031 26.183969 21.457031 25.792969 C 21.376031 25.711969 20.631 25 19.5 25 L 18.625 25 z M 26.5 25 C 24.57 25 23 26.794 23 29 C 23 31.206 24.57 33 26.5 33 C 28.43 33 30 31.206 30 29 C 30 26.794 28.43 25 26.5 25 z M 32.029297 25 C 31.923594 24.996984 31.816187 25.010969 31.710938 25.042969 C 31.289938 25.169969 31 25.56 31 26 L 31 32 C 31 32.552 31.448 33 32 33 C 32.552 33 33 32.552 33 32 L 33 29.302734 L 35.167969 32.554688 C 35.356969 32.837688 35.672 33 36 33 C 36.097 33 36.193063 32.987031 36.289062 32.957031 C 36.710062 32.830031 37 32.44 37 32 L 37 26 C 37 25.448 36.552 25 36 25 C 35.448 25 35 25.448 35 26 L 35 28.697266 L 32.832031 25.445312 C 32.647531 25.170062 32.346406 25.009047 32.029297 25 z M 26.5 27 C 27.313 27 28 27.916 28 29 C 28 30.084 27.313 31 26.5 31 C 25.687 31 25 30.084 25 29 C 25 27.916 25.687 27 26.5 27 z" fill="#0C817B" />
</svg>