<svg xmlns="http://www.w3.org/2000/svg" viewBox="0 0 120 120" width="20px" height="20px" baseProfile="basic">
  <path d="M106,35.986l-4.522-4.444c-4.523-4.445-11.687-4.711-16.527-0.614L29.844,80.18l7.076,8.361l23.697-20.839l8.501,1.33 L106,35.986z" opacity=".35" />
  <path fill="#52afff" d="M106,31.986l-4.522-4.444c-4.523-4.445-11.687-4.711-16.527-0.614L29.844,76.18l7.076,8.361 l23.697-20.839l8.501,1.33L106,31.986z" />
  <path d="M106,93.08l-4.522,4.444c-4.523,4.445-11.687,4.711-16.527,0.614L29.844,48.886l7.076-8.361l23.697,20.839l8.501-1.33 L106,93.08z" opacity=".35" />
  <path fill="#52afff" d="M106,89.08l-4.522,4.444c-4.523,4.445-11.687,4.711-16.527,0.614L29.844,44.886l7.076-8.361 l23.697,20.839l8.501-1.33L106,89.08z" />
  <circle cx="36.99" cy="91.99" r="20.01" opacity=".35" />
  <circle cx="37" cy="36.041" r="20" opacity=".35" />
  <circle cx="36.99" cy="87.99" r="20.01" fill="#0037ff" />
  <circle cx="37" cy="91" r="9" opacity=".35" />
  <circle cx="37" cy="88" r="9" fill="#99e4ff" />
  <circle cx="37" cy="32.041" r="20" fill="#0037ff" />
  <circle cx="36.959" cy="35.017" r="8.959" opacity=".35" />
  <circle cx="36.959" cy="32.017" r="8.959" fill="#99e4ff" />
  <circle cx="61" cy="60" r="4" fill="#0037ff" />
</svg>