<svg xmlns="http://www.w3.org/2000/svg" viewBox="0 0 24 24" width="64px" height="64px">
  <path d="M19,22H7c-1.1,0-2-0.9-2-2v-3h2v3h12V7.8L15.2,4H7v6H5V4c0-1.1,0.9-2,2-2h9l5,5v13C21,21.1,20.1,22,19,22z" fill="#7C2CA4" />
  <path d="M19.5 8L15 8 15 3.5z" fill="#7C2CA4" />
  <path d="M15.6,3H7C6.4,3,6,3.4,6,4v6h13v7H6v3c0,0.6,0.4,1,1,1h12c0.6,0,1-0.4,1-1 V7.4L15.6,3z" opacity=".3" fill="#7C2CA4" />
  <path d="M20,9H4c-1.1,0-2,0.9-2,2v5c0,1.1,0.9,2,2,2h16V9z M6.7,16L6,14.3L5.3,16H4l1.3-2.5L4,11h1.2L6,12.7L6.7,11H8l-1.3,2.5L8,16 H6.7z M14,16L14,16h-1v-1.3l0.1-2.1L11.9,16h-0.8l-1.2-3.4l0.1,2.1V16H9v-5h1.5l1,3.6l1-3.6H14V16z M18,16h-3v-5h1v4h2V16z" fill="#7C2CA4" />
</svg>