<svg xmlns="http://www.w3.org/2000/svg" viewBox="0 0 120 120" width="16px" height="16px" baseProfile="basic">
  <path fill="#52afff" d="M60,99H8V22h44.208C56.512,22,60,25.488,60,29.792V99z" />
  <path fill="#0075ff" d="M60,99h52V22H67.792C63.488,22,60,25.488,60,29.792V99z" />
  <rect width="26" height="5" x="17" y="36" opacity=".35" />
  <rect width="5" height="5" x="48" y="36" opacity=".35" />
  <rect width="26" height="5" x="17" y="33" fill="#a4e2f1" />
  <rect width="5" height="5" x="48" y="33" fill="#a4e2f1" />
  <rect width="26" height="5" x="17" y="50" opacity=".35" />
  <rect width="5" height="5" x="48" y="50" opacity=".35" />
  <rect width="26" height="5" x="17" y="47" fill="#a4e2f1" />
  <rect width="5" height="5" x="48" y="47" fill="#a4e2f1" />
  <rect width="26" height="5" x="17" y="67" opacity=".35" />
  <rect width="5" height="5" x="48" y="67" opacity=".35" />
  <rect width="26" height="5" x="17" y="64" fill="#a4e2f1" />
  <rect width="5" height="5" x="48" y="64" fill="#a4e2f1" />
  <rect width="26" height="5" x="17" y="83" opacity=".35" />
  <rect width="5" height="5" x="48" y="83" opacity=".35" />
  <rect width="26" height="5" x="17" y="80" fill="#a4e2f1" />
  <rect width="5" height="5" x="48" y="80" fill="#a4e2f1" />
  <rect width="26" height="5" x="67" y="36" opacity=".35" />
  <rect width="5" height="5" x="100" y="36" opacity=".35" />
  <rect width="26" height="5" x="67" y="50" opacity=".35" />
  <rect width="5" height="5" x="100" y="50" opacity=".35" />
  <rect width="26" height="5" x="67" y="33" fill="#a4e2f1" />
  <rect width="5" height="5" x="100" y="33" fill="#a4e2f1" />
  <rect width="26" height="5" x="67" y="47" fill="#a4e2f1" />
  <rect width="5" height="5" x="100" y="47" fill="#a4e2f1" />
  <rect width="104" height="4" x="8" y="99" opacity=".35" />
</svg>