<svg width="64" height="64" viewBox="0 0 64 64" fill="none" xmlns="http://www.w3.org/2000/svg">
  <defs>
    <linearGradient id="cleanAiBlue" x1="8" y1="8" x2="56" y2="56" gradientUnits="userSpaceOnUse">
      <stop stop-color="#4DA3FF"></stop>
      <stop offset="1" stop-color="#1565D8"></stop>
    </linearGradient>
  </defs>

  <!-- Outer circle -->
  <circle cx="32" cy="32" r="24" fill="url(#cleanAiBlue)"></circle>

  <!-- Sparkles / clean effect -->
  <path d="M19 22L20.4 25.6L24 27L20.4 28.4L19 32L17.6 28.4L14 27L17.6 25.6L19 22Z" fill="white" fill-opacity="0.95"></path>
  <path d="M46 17L47 19.5L49.5 20.5L47 21.5L46 24L45 21.5L42.5 20.5L45 19.5L46 17Z" fill="white" fill-opacity="0.9"></path>

  <!-- Central AI/data grid -->
  <rect x="23" y="23" width="18" height="18" rx="4" fill="white" fill-opacity="0.96"></rect>

  <!-- Small nodes -->
  <circle cx="28" cy="28" r="1.7" fill="#1565D8"></circle>
  <circle cx="36" cy="28" r="1.7" fill="#1565D8"></circle>
  <circle cx="28" cy="36" r="1.7" fill="#1565D8"></circle>
  <circle cx="36" cy="36" r="1.7" fill="#1565D8"></circle>

  <!-- Connecting lines -->
  <path d="M28 28H36M28 36H36M28 28V36M36 28V36" stroke="#1565D8" stroke-width="1.6" stroke-linecap="round"></path>

  <!-- Check mark -->
  <path d="M26.5 46L30.5 50L38.5 42" stroke="white" stroke-width="3" stroke-linecap="round" stroke-linejoin="round"></path>
</svg>